<svg width="36" height="36" viewBox="0 0 36 36" fill="none" xmlns="http://www.w3.org/2000/svg">
<g filter="url(#filter0_d_42_75)">
<path d="M18 8C19.3261 8 20.5979 8.52678 21.5355 9.46447C22.4732 10.4021 23 11.6739 23 13C23 14.3261 22.4732 15.5979 21.5355 16.5355C20.5979 17.4732 19.3261 18 18 18C16.6739 18 15.4021 17.4732 14.4645 16.5355C13.5268 15.5979 13 14.3261 13 13C13 11.6739 13.5268 10.4021 14.4645 9.46447C15.4021 8.52678 16.6739 8 18 8ZM18 20.5C23.525 20.5 28 22.7375 28 25.5V28H8V25.5C8 22.7375 12.475 20.5 18 20.5Z" fill="#3278BD"/>
</g>
<defs>
<filter id="filter0_d_42_75" x="0" y="0" width="36" height="36" filterUnits="userSpaceOnUse" color-interpolation-filters="sRGB">
<feFlood flood-opacity="0" result="BackgroundImageFix"/>
<feColorMatrix in="SourceAlpha" type="matrix" values="0 0 0 0 0 0 0 0 0 0 0 0 0 0 0 0 0 0 127 0" result="hardAlpha"/>
<feOffset/>
<feGaussianBlur stdDeviation="4"/>
<feComposite in2="hardAlpha" operator="out"/>
<feColorMatrix type="matrix" values="0 0 0 0 0.596722 0 0 0 0 0.688181 0 0 0 0 0.778333 0 0 0 0.55 0"/>
<feBlend mode="lighten" in2="BackgroundImageFix" result="effect1_dropShadow_42_75"/>
<feBlend mode="normal" in="SourceGraphic" in2="effect1_dropShadow_42_75" result="shape"/>
</filter>
</defs>
</svg>
