<svg width="36" height="40" viewBox="0 0 36 40" fill="none" xmlns="http://www.w3.org/2000/svg">
<g filter="url(#filter0_d_42_79)">
<path d="M24.25 16.4V14C24.25 10.64 21.5 8 18 8C14.5 8 11.75 10.64 11.75 14V16.4C9.625 16.4 8 17.96 8 20V28.4C8 30.44 9.625 32 11.75 32H24.25C26.375 32 28 30.44 28 28.4V20C28 17.96 26.375 16.4 24.25 16.4ZM14.25 14C14.25 11.96 15.875 10.4 18 10.4C20.125 10.4 21.75 11.96 21.75 14V16.4H14.25V14ZM19.375 24.2L19.25 24.32V26C19.25 26.72 18.75 27.2 18 27.2C17.25 27.2 16.75 26.72 16.75 26V24.32C16 23.6 15.875 22.52 16.625 21.8C17.375 21.08 18.5 20.96 19.25 21.68C20 22.28 20.125 23.48 19.375 24.2Z" fill="#3278BD"/>
</g>
<defs>
<filter id="filter0_d_42_79" x="0" y="0" width="36" height="40" filterUnits="userSpaceOnUse" color-interpolation-filters="sRGB">
<feFlood flood-opacity="0" result="BackgroundImageFix"/>
<feColorMatrix in="SourceAlpha" type="matrix" values="0 0 0 0 0 0 0 0 0 0 0 0 0 0 0 0 0 0 127 0" result="hardAlpha"/>
<feOffset/>
<feGaussianBlur stdDeviation="4"/>
<feComposite in2="hardAlpha" operator="out"/>
<feColorMatrix type="matrix" values="0 0 0 0 0.596722 0 0 0 0 0.688181 0 0 0 0 0.778333 0 0 0 0.55 0"/>
<feBlend mode="lighten" in2="BackgroundImageFix" result="effect1_dropShadow_42_79"/>
<feBlend mode="normal" in="SourceGraphic" in2="effect1_dropShadow_42_79" result="shape"/>
</filter>
</defs>
</svg>
