<svg width="47" height="49" viewBox="0 0 47 49" fill="none" xmlns="http://www.w3.org/2000/svg">
<g filter="url(#filter0_d_100_48)">
<path d="M36.6358 25.5903C35.4639 23.586 34.8415 20.7091 34.8415 17.2765C34.8415 14.2858 33.6466 11.4176 31.5197 9.30282C29.3929 7.18806 26.5082 6 23.5003 6C20.4925 6 17.6078 7.18806 15.4809 9.30282C13.3541 11.4176 12.1592 14.2858 12.1592 17.2765C12.1592 20.7105 11.5395 23.586 10.3676 25.5903C10.1284 25.9991 10.0017 26.4632 10 26.9361C9.99836 27.4091 10.1219 27.8741 10.3581 28.2845C10.5929 28.6952 10.9336 29.0362 11.3452 29.2721C11.7567 29.5081 12.2242 29.6306 12.6993 29.627H17.584C17.718 31.0951 18.3993 32.4604 19.494 33.4546C20.5887 34.4488 22.0177 35 23.5003 35C24.983 35 26.412 34.4488 27.5067 33.4546C28.6014 32.4604 29.2827 31.0951 29.4166 29.627H34.3014C34.7758 29.6299 35.2424 29.5071 35.6532 29.2711C36.064 29.0352 36.4041 28.6946 36.6385 28.2845C36.8758 27.8747 37.0005 27.41 37 26.937C36.9995 26.4641 36.8739 25.9997 36.6358 25.5903ZM23.5003 31.7749C22.8779 31.775 22.2744 31.5613 21.7922 31.1699C21.31 30.7785 20.9786 30.2334 20.8541 29.627H26.1466C26.0221 30.2334 25.6907 30.7785 25.2085 31.1699C24.7263 31.5613 24.1228 31.775 23.5003 31.7749ZM13.5984 26.4051C14.7933 23.9887 15.3995 20.9199 15.3995 17.2765C15.3995 15.1403 16.253 13.0916 17.7722 11.581C19.2914 10.0705 21.3519 9.22186 23.5003 9.22186C25.6488 9.22186 27.7093 10.0705 29.2285 11.581C30.7477 13.0916 31.6012 15.1403 31.6012 17.2765C31.6012 20.9186 32.206 23.9887 33.4009 26.4051H13.5984Z" fill="white"/>
</g>
<defs>
<filter id="filter0_d_100_48" x="0" y="0" width="47" height="49" filterUnits="userSpaceOnUse" color-interpolation-filters="sRGB">
<feFlood flood-opacity="0" result="BackgroundImageFix"/>
<feColorMatrix in="SourceAlpha" type="matrix" values="0 0 0 0 0 0 0 0 0 0 0 0 0 0 0 0 0 0 127 0" result="hardAlpha"/>
<feOffset dy="4"/>
<feGaussianBlur stdDeviation="5"/>
<feComposite in2="hardAlpha" operator="out"/>
<feColorMatrix type="matrix" values="0 0 0 0 1 0 0 0 0 1 0 0 0 0 1 0 0 0 0.5 0"/>
<feBlend mode="lighten" in2="BackgroundImageFix" result="effect1_dropShadow_100_48"/>
<feBlend mode="normal" in="SourceGraphic" in2="effect1_dropShadow_100_48" result="shape"/>
</filter>
</defs>
</svg>
